<svg xmlns="http://www.w3.org/2000/svg" width="3543" height="3543" viewBox="0 0 3543 3543" version="1.1"><path d="M 2174.500 628.939 C 2141.608 634.777, 2116.853 647.570, 2096.283 669.359 C 2064.681 702.834, 2047.305 755.720, 2040.054 840.500 C 2038.533 858.275, 2034.018 938.222, 2034.003 947.626 C 2034.001 949.215, 2028.981 953.560, 2014.123 964.832 C 1989.419 983.575, 1975.906 992.432, 1960.500 999.976 C 1936.927 1011.520, 1920.508 1015.502, 1897 1015.377 C 1880.534 1015.290, 1873.035 1014.119, 1858.782 1009.408 L 1851.064 1006.857 1859.483 996.848 C 1882.109 969.944, 1906.716 928.302, 1921.872 891.267 C 1941.571 843.131, 1951.100 790.828, 1948.080 747.409 C 1946.471 724.273, 1946.460 724.226, 1942.121 722.997 C 1928.079 719.021, 1906.458 717.271, 1892.060 718.944 C 1865.633 722.017, 1846.402 731.473, 1826.975 750.949 C 1798.675 779.320, 1780.592 823.945, 1773.464 883 C 1769.998 911.723, 1770.484 958.735, 1774.550 987.937 L 1776.004 998.373 1772.430 1005.437 C 1756.595 1036.736, 1718.727 1062.616, 1674.749 1072.195 C 1660.991 1075.191, 1628.941 1075.489, 1616.568 1072.734 C 1612.205 1071.763, 1608.439 1070.773, 1608.199 1070.533 C 1607.960 1070.293, 1609.791 1064.562, 1612.268 1057.798 C 1625.381 1022, 1631.813 991.705, 1632.716 961.483 C 1633.318 941.331, 1631.926 928.884, 1627.660 916.275 C 1625.427 909.676, 1619.936 898.940, 1616.647 894.744 C 1612.782 889.813, 1586.487 887.271, 1573.644 890.586 C 1537.752 899.853, 1512.364 942.066, 1506.940 1001.500 C 1503.183 1042.658, 1514.031 1089.309, 1531.751 1108.205 L 1534.288 1110.910 1528.840 1118.428 C 1512.839 1140.505, 1483.197 1171.731, 1462.500 1188.315 C 1413.867 1227.283, 1370.961 1239.935, 1339.529 1224.578 C 1328.577 1219.227, 1328.728 1220.457, 1337.665 1209.357 C 1389.528 1144.949, 1414.083 1072.738, 1404.908 1011.613 C 1403.852 1004.577, 1400.864 991.512, 1398.886 985.278 C 1397.661 981.418, 1395.706 980.742, 1379 978.397 C 1362.423 976.071, 1340.922 976.902, 1327.571 980.385 C 1279.974 992.804, 1250.620 1034.726, 1242.416 1102 C 1239.340 1127.226, 1241.396 1174.285, 1246.787 1202.065 L 1247.673 1206.629 1230.795 1224.565 C 1170.632 1288.498, 1142.832 1315.174, 1120.723 1330.188 C 1117.539 1332.350, 1103.361 1340.207, 1089.217 1347.647 C 1058.409 1363.852, 1048.995 1369.899, 1038.766 1380.051 C 1032.801 1385.970, 1030.170 1389.531, 1027.266 1395.613 C 1023.618 1403.254, 1023.500 1403.844, 1023.500 1414.500 C 1023.500 1426.985, 1024.999 1433, 1028.111 1433 C 1031.048 1433, 1052.903 1424.494, 1066.513 1418.053 C 1105.218 1399.736, 1139.009 1375.760, 1204 1320.501 C 1216.375 1309.980, 1232.575 1296.298, 1240 1290.099 C 1254.986 1277.587, 1283.246 1255.995, 1284.618 1256.009 C 1285.103 1256.013, 1289.325 1257.865, 1294 1260.123 C 1313.091 1269.344, 1333.935 1275.745, 1352.356 1278.044 C 1365.847 1279.727, 1391.727 1278.745, 1403.171 1276.114 C 1424.647 1271.179, 1444.830 1262.316, 1464.500 1249.184 C 1495.504 1228.484, 1522.949 1201.179, 1566.285 1147.916 L 1583.032 1127.333 1590.766 1127.777 C 1601.033 1128.368, 1639.331 1126.399, 1655 1124.476 C 1688.850 1120.320, 1716.206 1112.818, 1740.500 1101.028 C 1759.231 1091.938, 1771.580 1083.379, 1785.537 1069.813 L 1792.575 1062.973 1806.037 1064.679 C 1825.664 1067.166, 1880.526 1067.178, 1898 1064.699 C 1958.409 1056.127, 2003.856 1036.244, 2059.377 994.097 L 2074.253 982.803 2081.877 986.318 C 2091.109 990.575, 2099.761 992.568, 2115.556 994.076 C 2143.920 996.784, 2198.893 990.797, 2237.500 980.796 C 2250.407 977.452, 2309.237 947.559, 2338.814 929.316 C 2385.088 900.773, 2422.617 870.534, 2463.500 828.852 C 2479.079 812.969, 2482.331 809.088, 2487.681 800 C 2491.080 794.225, 2495.345 785.900, 2497.158 781.500 C 2500.090 774.385, 2500.457 772.441, 2500.477 763.931 C 2500.498 755.190, 2500.266 754.008, 2497.801 750.279 C 2494.934 745.943, 2487.533 741.633, 2481 740.496 C 2477.500 739.886, 2477.499 739.887, 2468.794 751.803 C 2421.936 815.944, 2366.098 863.440, 2264.900 925.235 C 2244.605 937.628, 2244.147 937.845, 2233.900 939.918 C 2204.190 945.928, 2172.284 948.440, 2155.961 946.056 C 2139.152 943.600, 2128.092 938.021, 2123.954 929.911 L 2121.860 925.805 2128.230 919.153 C 2167.244 878.408, 2192.992 814.738, 2201.490 738 C 2203.979 715.526, 2205.231 678.610, 2204.260 656.365 C 2203.266 633.597, 2202.823 632.185, 2195.672 628.938 C 2190.613 626.641, 2187.442 626.641, 2174.500 628.939 M 2143.500 696.227 C 2135.199 699.186, 2125.733 708.784, 2117.839 722.246 C 2092.665 765.173, 2075.608 848.279, 2086.582 874.541 C 2092.205 888, 2104.022 882.728, 2119.170 860 C 2124.967 851.303, 2138.205 824.682, 2143.427 811.223 C 2158.733 771.775, 2166.358 720.494, 2159.259 704.757 C 2155.328 696.044, 2150.835 693.613, 2143.500 696.227 M 1892.500 773.023 C 1863.342 776.980, 1839.971 802.863, 1824.976 847.806 C 1814.636 878.796, 1808.739 923.667, 1811.904 947.271 C 1813.749 961.028, 1813.357 960.659, 1821.147 955.993 C 1841.948 943.536, 1862.912 915.218, 1878.516 878.500 C 1891.737 847.391, 1904.479 800.190, 1905.242 779.500 L 1905.500 772.500 1902 772.354 C 1900.075 772.274, 1895.800 772.575, 1892.500 773.023 M 1562.269 954.750 C 1556.572 972.153, 1553.193 986.076, 1550.923 1001.500 C 1548.637 1017.028, 1548.526 1026.074, 1550.504 1035.500 C 1552.077 1043, 1556.656 1053.062, 1558.819 1053.777 C 1563.385 1055.286, 1577.324 1031.585, 1582.499 1013.513 C 1587.765 995.125, 1589.664 973.386, 1587.031 961.637 C 1584.440 950.075, 1576.884 942, 1568.656 942 C 1566.705 942, 1565.947 943.513, 1562.269 954.750 M 2412 992.910 C 2264.595 1043.476, 2142.452 1093.777, 1871.500 1215.498 C 1769.390 1261.369, 1718.651 1283.900, 1669.706 1305.106 C 1475.970 1389.045, 1324.056 1445.043, 1172 1488.568 L 1141.500 1497.299 1120 1497.097 C 1090.505 1496.820, 1079.035 1498.689, 1069.343 1505.351 C 1062.278 1510.208, 1058.752 1517.512, 1058.269 1528.296 C 1058.066 1532.808, 1058.260 1537.018, 1058.700 1537.650 C 1059.741 1539.147, 1086.511 1541.003, 1106.905 1540.991 C 1167.512 1540.957, 1227.810 1528.606, 1300.086 1501.422 C 1320.292 1493.822, 1351.064 1480.970, 1404 1458.023 C 1439.518 1442.626, 1448.893 1438.846, 1530.782 1406.893 C 1648.328 1361.026, 1712.692 1335.303, 1757 1316.484 C 1768.275 1311.695, 1854.900 1273.899, 1949.500 1232.492 C 2195.305 1124.901, 2295.684 1081.348, 2388.500 1042.017 C 2412.150 1031.995, 2436.450 1021.672, 2442.500 1019.077 L 2453.500 1014.358 2453.336 1009.657 C 2453.231 1006.635, 2451.889 1002.196, 2449.578 997.228 C 2447.602 992.978, 2445.875 987.813, 2445.742 985.752 C 2445.609 983.691, 2445.050 982.027, 2444.500 982.054 C 2443.950 982.082, 2429.325 986.967, 2412 992.910 M 1337.500 1030.342 C 1314.524 1037.972, 1292.699 1068.078, 1283.015 1105.500 C 1275.975 1132.702, 1276.844 1155.396, 1285.560 1171.982 C 1289.253 1179.010, 1295.146 1185.646, 1296.792 1184.629 C 1298.354 1183.663, 1319.181 1152.367, 1325.492 1141.500 C 1328.686 1136, 1333.229 1128.510, 1335.588 1124.855 C 1350.209 1102.199, 1357.124 1082.521, 1358.608 1059.347 C 1359.161 1050.713, 1357.749 1031.416, 1356.471 1030.138 C 1355.323 1028.989, 1341.114 1029.142, 1337.500 1030.342 M 2319.500 1171.722 C 2188.133 1221.290, 2110.340 1255.683, 1888 1362.493 C 1789.802 1409.666, 1739.802 1433.117, 1685 1457.703 C 1516.739 1533.188, 1379.266 1582.108, 1239 1616.411 C 1222.225 1620.514, 1205.702 1624.437, 1202.282 1625.129 L 1196.065 1626.387 1195.406 1630.943 C 1195.044 1633.450, 1192.910 1640.225, 1190.664 1646 C 1187.111 1655.139, 1186.580 1657.537, 1186.569 1664.500 C 1186.551 1676.521, 1185.745 1675.917, 1199.657 1674.300 C 1245.291 1668.997, 1295.166 1658.075, 1338.942 1643.799 C 1373.291 1632.598, 1399.061 1622.271, 1459.500 1595.491 C 1514.233 1571.239, 1517.146 1569.998, 1622.500 1526.019 C 1954.022 1387.629, 2083.068 1330.639, 2252.002 1248.011 L 2300.504 1224.288 2315.502 1223.716 C 2323.888 1223.396, 2332.812 1222.492, 2335.744 1221.664 C 2353.657 1216.609, 2363.069 1205.781, 2364.696 1188.356 C 2365.151 1183.484, 2364.914 1181.518, 2363.641 1179.575 C 2361.251 1175.928, 2359.275 1175.171, 2348.048 1173.602 C 2338.534 1172.272, 2333 1170.203, 2333 1167.977 C 2333 1166.630, 2332.982 1166.635, 2319.500 1171.722 M 2428.544 1338.681 C 2428.163 1340.198, 2426.253 1344.029, 2424.298 1347.196 C 2421.950 1351.001, 2420.723 1354.232, 2420.680 1356.726 C 2420.645 1358.802, 2422.948 1369.050, 2425.799 1379.500 C 2441.435 1436.816, 2456.382 1513.631, 2465.399 1583 C 2492.027 1787.859, 2486.495 1993.523, 2449.946 2157.500 C 2411.799 2328.651, 2343.858 2439.498, 2219.500 2533.481 C 2152.805 2583.884, 2072.948 2625.219, 1987.500 2653.566 C 1946.925 2667.026, 1917.541 2674.439, 1873 2682.452 C 1840.238 2688.345, 1827.172 2691.340, 1813.148 2696.169 C 1786.035 2705.505, 1767.614 2718.847, 1757.159 2736.719 C 1750.417 2748.246, 1750.056 2747.605, 1763.728 2748.392 C 1783.698 2749.541, 1814.590 2746.920, 1846 2741.411 C 1923.821 2727.762, 2032.485 2690.002, 2123.500 2644.983 C 2155.635 2629.088, 2157.741 2627.870, 2206.712 2596.872 C 2246.866 2571.456, 2266.907 2558.340, 2280.875 2548.336 C 2291.433 2540.775, 2307.290 2527.581, 2311.117 2523.172 C 2312.870 2521.153, 2320.055 2513.425, 2327.084 2506 C 2358.418 2472.900, 2384.406 2436.522, 2410.796 2388.821 C 2469.401 2282.891, 2509.484 2155.519, 2522.965 2032.382 C 2528.563 1981.247, 2530.500 1931.531, 2530.500 1839 C 2530.500 1759.147, 2530.052 1742.884, 2526.436 1691.500 C 2515.999 1543.179, 2490.463 1425.778, 2452.047 1349.500 L 2445.500 1336.500 2437.368 1336.211 L 2429.236 1335.923 2428.544 1338.681 M 2148.107 1512.143 C 2069.030 1520.409, 1996.715 1580.009, 1971.687 1657.542 C 1960.395 1692.523, 1959.149 1732.984, 1968.301 1767.487 L 1969.624 1772.474 1978.866 1774.675 C 2000.440 1779.810, 2018.806 1781.981, 2040.789 1781.992 C 2059.851 1782.001, 2071.774 1780.854, 2089 1777.351 C 2171.139 1760.649, 2235.292 1699.286, 2258.423 1615.298 C 2264.257 1594.113, 2268.703 1563.504, 2267.834 1550.500 L 2267.500 1545.500 2259 1539.667 C 2227.615 1518.128, 2187.085 1508.069, 2148.107 1512.143 M 2160.306 1560.034 C 2105.936 1565.241, 2060.573 1598.449, 2033.997 1652.500 C 2021.959 1676.984, 2014.007 1704.444, 2011.194 1731.250 L 2010.381 1739 2015.440 1738.989 C 2018.223 1738.983, 2026.800 1738.311, 2034.500 1737.494 C 2126.039 1727.787, 2180.289 1691.686, 2201.296 1626.500 C 2206.939 1608.988, 2211.718 1579.161, 2210.829 1567 L 2210.500 1562.500 2203 1561.347 C 2192.094 1559.670, 2170.910 1559.019, 2160.306 1560.034 M 1043.949 1752.359 C 1028.975 1764.115, 1023.117 1776.984, 1024.321 1795.484 C 1025.314 1810.746, 1029.267 1821.904, 1046.291 1857.500 C 1060.612 1887.445, 1067.015 1907.443, 1082.154 1969.500 C 1086.045 1985.450, 1095.926 2025.380, 1104.113 2058.233 C 1158.507 2276.516, 1205.727 2484.720, 1287.151 2865.283 L 1308.500 2965.067 1316.971 2964.783 L 1325.443 2964.500 1327.147 2959.903 C 1332.387 2945.769, 1332.322 2915.464, 1326.961 2872.500 C 1322.380 2835.780, 1316.638 2803.345, 1298.993 2714.500 C 1292.439 2681.500, 1284.341 2639.425, 1280.997 2621 C 1228.798 2333.351, 1176.312 2117.828, 1107.931 1910.347 C 1096.171 1874.668, 1094.129 1866.975, 1088.459 1837.006 C 1079.164 1787.875, 1072.071 1769.567, 1055.621 1752.250 C 1053.400 1749.912, 1051.115 1748, 1050.542 1748.001 C 1049.969 1748.001, 1047.002 1749.962, 1043.949 1752.359 M 1828.138 1829.750 C 1823.923 1848.614, 1822.703 1859.741, 1822.736 1879 C 1822.773 1900.580, 1824.764 1914.078, 1830.579 1932.178 C 1837.649 1954.186, 1851.291 1979.583, 1860.293 1987.499 C 1866.899 1993.308, 1882.146 2000.752, 1907 2010.302 C 1950.498 2027.016, 1968.711 2036.987, 1981.279 2050.965 C 1991.189 2061.988, 1995.304 2072.693, 1995.321 2087.500 C 1995.334 2098.622, 1993.788 2106.021, 1988.800 2118.700 L 1985.574 2126.900 1979.037 2129.910 C 1971.721 2133.278, 1964.769 2135.044, 1944.866 2138.592 C 1918.678 2143.260, 1909.816 2146.441, 1901.410 2154.190 C 1897.412 2157.875, 1897 2158.689, 1897 2162.906 C 1897 2166.174, 1898.053 2169.754, 1900.542 2174.948 C 1902.491 2179.014, 1904.352 2184.289, 1904.678 2186.670 L 1905.272 2191 1915.085 2191 C 1920.482 2191, 1930.119 2190.316, 1936.500 2189.479 C 1989.943 2182.473, 2026.428 2157.894, 2038.902 2120.491 C 2043.219 2107.548, 2044.341 2098.736, 2043.676 2083 C 2043.051 2068.223, 2040.881 2056.950, 2035.811 2042.157 C 2032.863 2033.553, 2032.131 2032.380, 2026.555 2027.314 C 2012.785 2014.805, 1993.655 2003.959, 1959 1989.014 C 1926.520 1975.006, 1910.448 1965.547, 1897.159 1952.616 C 1873.625 1929.717, 1863.717 1901.663, 1863.565 1857.500 C 1863.529 1847.050, 1863.854 1834.338, 1864.286 1829.250 L 1865.072 1820 1847.694 1820 L 1830.316 1820 1828.138 1829.750 M 1525.624 1848.871 C 1523.141 1895.860, 1509.353 1938.781, 1487.195 1968.500 C 1479.676 1978.585, 1465.659 1992.113, 1456.311 1998.309 C 1430.268 2015.567, 1398.396 2021.282, 1363.771 2014.902 L 1357.254 2013.701 1356.627 2007.704 C 1354.533 1987.671, 1357.135 1968.558, 1363.840 1954.723 C 1371.971 1937.945, 1384.010 1926.815, 1416 1906.503 C 1439.054 1891.866, 1450.127 1883.219, 1457.433 1874.148 C 1462.673 1867.643, 1470 1855.438, 1470 1853.214 C 1470 1851.355, 1451.932 1846.167, 1441.898 1845.146 C 1398.076 1840.684, 1358.347 1868.626, 1332.625 1922 C 1316.428 1955.608, 1308.015 1993.819, 1308.003 2033.820 L 1308 2046.139 1318.625 2051.151 C 1350.053 2065.976, 1385.585 2072.882, 1416.391 2070.155 C 1432.486 2068.730, 1450.456 2064.445, 1460.440 2059.652 C 1496.313 2042.431, 1541.900 1984.706, 1559.276 1934.500 C 1565.550 1916.371, 1567.349 1906.989, 1567.427 1892 C 1567.485 1880.722, 1567.132 1877.341, 1565.283 1871.458 C 1562.603 1862.935, 1556.823 1853.716, 1551.070 1848.792 C 1546.261 1844.675, 1535.299 1838.684, 1529.896 1837.219 L 1526.292 1836.242 1525.624 1848.871 M 1915.073 2383.591 C 1891.205 2389.601, 1871.124 2392.430, 1802 2399.517 C 1749.334 2404.917, 1731.509 2407.114, 1708 2411.100 C 1651.451 2420.689, 1614.061 2435.411, 1594.850 2455.654 C 1590.394 2460.348, 1583 2470.884, 1583 2472.538 C 1583 2474.481, 1611.625 2475.318, 1633.500 2474.014 C 1669.728 2471.856, 1694.320 2468.427, 1763.500 2455.884 C 1853.303 2439.603, 1883 2435.648, 1932.122 2433.425 L 1945.744 2432.809 1946.315 2427.985 C 1946.630 2425.331, 1948.541 2419.187, 1950.562 2414.330 C 1954.457 2404.969, 1955.772 2396.631, 1954.591 2388.761 L 1953.925 2384.319 1944.525 2382.159 C 1932.648 2379.431, 1931.338 2379.495, 1915.073 2383.591" stroke="none" fill="#110bf4" fill-rule="evenodd"/><path d="" stroke="none" fill="#180cf4" fill-rule="evenodd"/></svg>